<svg id="svg" version="1.1" xmlns="http://www.w3.org/2000/svg" xmlns:xlink="http://www.w3.org/1999/xlink" width="600" height="500" viewBox="0, 0, 400,380" fill="none" ><g id="svgg"><path id="path0" d="M176.426 17.898 C 176.426 18.554,175.482 19.312,174.491 19.452 C 173.814 19.548,173.543 19.855,173.454 20.627 C 173.388 21.202,173.174 21.673,172.979 21.673 C 172.783 21.673,172.624 22.357,172.624 23.194 C 172.624 24.292,172.465 24.715,172.053 24.715 C 171.655 24.715,171.483 25.116,171.483 26.046 C 171.483 26.975,171.655 27.376,172.053 27.376 C 172.491 27.376,172.624 27.862,172.624 29.468 C 172.624 30.618,172.795 31.559,173.004 31.559 C 173.213 31.559,173.384 31.987,173.384 32.510 C 173.384 33.101,173.599 33.460,173.954 33.460 C 174.309 33.460,174.525 33.819,174.525 34.411 C 174.525 35.002,174.740 35.361,175.095 35.361 C 175.475 35.361,175.665 35.741,175.665 36.502 C 175.665 37.129,175.837 37.643,176.046 37.643 C 176.255 37.643,176.426 38.223,176.426 38.933 C 176.426 39.729,176.644 40.307,176.996 40.442 C 177.310 40.562,177.567 41.094,177.567 41.623 C 177.567 42.152,177.738 42.586,177.947 42.586 C 178.156 42.586,178.327 42.933,178.327 43.358 C 178.327 43.783,178.584 44.229,178.897 44.349 C 179.251 44.485,179.468 45.063,179.468 45.870 C 179.468 46.677,179.685 47.255,180.038 47.391 C 180.352 47.511,180.608 48.019,180.608 48.520 C 180.608 49.050,180.832 49.430,181.145 49.430 C 181.487 49.430,181.646 49.763,181.582 50.344 C 181.343 52.514,180.868 52.471,205.137 52.471 C 224.652 52.471,227.376 52.402,227.376 51.901 C 227.376 51.587,227.633 51.331,227.947 51.331 C 228.295 51.331,228.517 50.976,228.517 50.421 C 228.517 49.920,228.774 49.413,229.087 49.292 C 229.401 49.172,229.658 48.726,229.658 48.301 C 229.658 47.876,229.829 47.529,230.038 47.529 C 230.247 47.529,230.418 47.272,230.418 46.958 C 230.418 46.644,230.675 46.388,230.989 46.388 C 231.343 46.388,231.559 46.029,231.559 45.437 C 231.559 44.914,231.730 44.487,231.939 44.487 C 232.148 44.487,232.319 44.059,232.319 43.536 C 232.319 42.945,232.535 42.586,232.890 42.586 C 233.203 42.586,233.460 42.347,233.460 42.056 C 233.460 41.765,233.717 41.428,234.030 41.307 C 234.344 41.187,234.601 40.741,234.601 40.316 C 234.601 39.891,234.772 39.544,234.981 39.544 C 235.213 39.544,235.356 37.872,235.349 35.266 C 235.337 31.033,234.980 29.658,233.893 29.658 C 233.655 29.658,233.460 29.401,233.460 29.087 C 233.460 28.774,233.203 28.517,232.890 28.517 C 232.576 28.517,232.319 28.250,232.319 27.924 C 232.319 27.598,232.148 27.437,231.939 27.567 C 231.730 27.696,231.559 27.535,231.559 27.209 C 231.559 26.734,231.076 26.616,229.128 26.616 C 227.318 26.616,226.641 26.470,226.478 26.046 C 226.304 25.592,225.489 25.475,222.477 25.475 C 219.989 25.475,218.645 25.327,218.550 25.043 C 218.467 24.793,217.170 24.531,215.477 24.423 C 213.866 24.319,212.548 24.086,212.548 23.904 C 212.548 23.723,211.179 23.574,209.506 23.574 C 207.055 23.574,206.464 23.463,206.464 23.004 C 206.464 22.555,205.936 22.433,203.992 22.433 C 202.598 22.433,201.521 22.268,201.521 22.053 C 201.521 21.844,200.580 21.673,199.430 21.673 C 197.824 21.673,197.338 21.541,197.338 21.103 C 197.338 20.654,196.810 20.532,194.867 20.532 C 192.924 20.532,192.395 20.410,192.395 19.962 C 192.395 19.550,191.973 19.392,190.875 19.392 C 190.038 19.392,189.354 19.221,189.354 19.011 C 189.354 18.802,188.498 18.631,187.452 18.631 C 186.016 18.631,185.551 18.492,185.551 18.061 C 185.551 17.586,184.791 17.490,180.989 17.490 C 177.997 17.490,176.426 17.631,176.426 17.898 M168.441 64.068 C 168.441 64.423,168.082 64.639,167.490 64.639 C 166.871 64.639,166.540 64.852,166.540 65.250 C 166.540 65.637,166.331 65.781,165.970 65.642 C 165.622 65.509,165.399 65.641,165.399 65.982 C 165.399 66.289,165.228 66.540,165.019 66.540 C 164.810 66.540,164.639 66.797,164.639 67.110 C 164.639 67.424,164.382 67.681,164.068 67.681 C 163.745 67.681,163.498 68.022,163.498 68.468 C 163.498 68.901,163.241 69.512,162.928 69.826 C 162.552 70.202,162.357 71.149,162.357 72.604 C 162.357 74.103,162.541 74.964,162.928 75.285 C 163.241 75.546,163.498 76.165,163.498 76.663 C 163.498 77.213,163.721 77.567,164.068 77.567 C 164.382 77.567,164.639 77.750,164.639 77.974 C 164.639 78.500,165.606 79.468,166.133 79.468 C 166.357 79.468,166.540 79.724,166.540 80.038 C 166.540 80.393,166.899 80.608,167.490 80.608 C 168.013 80.608,168.441 80.779,168.441 80.989 C 168.441 81.198,169.125 81.369,169.962 81.369 C 171.060 81.369,171.483 81.527,171.483 81.939 C 171.483 82.253,171.208 82.510,170.872 82.510 C 170.485 82.510,170.341 82.719,170.480 83.080 C 170.613 83.427,170.480 83.650,170.140 83.650 C 169.798 83.650,169.582 84.018,169.582 84.601 C 169.582 85.192,169.366 85.551,169.011 85.551 C 168.698 85.551,168.441 85.808,168.441 86.122 C 168.441 86.435,168.270 86.692,168.061 86.692 C 167.852 86.692,167.681 87.120,167.681 87.643 C 167.681 88.234,167.465 88.593,167.110 88.593 C 166.755 88.593,166.540 88.952,166.540 89.544 C 166.540 90.135,166.324 90.494,165.970 90.494 C 165.656 90.494,165.399 90.751,165.399 91.065 C 165.399 91.378,165.228 91.635,165.019 91.635 C 164.810 91.635,164.639 92.063,164.639 92.586 C 164.639 93.177,164.423 93.536,164.068 93.536 C 163.720 93.536,163.498 93.891,163.498 94.446 C 163.498 94.946,163.231 95.459,162.904 95.584 C 162.577 95.709,162.416 95.984,162.546 96.195 C 162.676 96.406,162.516 96.578,162.190 96.578 C 161.811 96.578,161.597 96.921,161.597 97.529 C 161.597 98.120,161.381 98.479,161.027 98.479 C 160.672 98.479,160.456 98.838,160.456 99.430 C 160.456 99.952,160.285 100.380,160.076 100.380 C 159.867 100.380,159.696 100.637,159.696 100.951 C 159.696 101.264,159.439 101.521,159.125 101.521 C 158.777 101.521,158.555 101.875,158.555 102.431 C 158.555 102.931,158.298 103.439,157.985 103.560 C 157.671 103.680,157.414 104.171,157.414 104.651 C 157.414 105.137,156.994 105.839,156.464 106.237 C 155.920 106.645,155.513 107.335,155.513 107.848 C 155.513 108.392,155.289 108.745,154.943 108.745 C 154.604 108.745,154.373 109.094,154.373 109.606 C 154.373 110.079,153.946 110.787,153.422 111.180 C 152.899 111.572,152.471 112.279,152.471 112.750 C 152.471 113.221,152.195 113.713,151.858 113.842 C 151.469 113.992,151.317 114.354,151.442 114.834 C 151.570 115.323,151.452 115.589,151.105 115.589 C 150.811 115.589,150.570 115.846,150.570 116.160 C 150.570 116.473,150.314 116.730,150.000 116.730 C 149.645 116.730,149.430 117.089,149.430 117.681 C 149.430 118.203,149.259 118.631,149.049 118.631 C 148.840 118.631,148.669 118.888,148.669 119.202 C 148.669 119.515,148.413 119.772,148.099 119.772 C 147.744 119.772,147.529 120.131,147.529 120.722 C 147.529 121.314,147.313 121.673,146.958 121.673 C 146.603 121.673,146.388 122.032,146.388 122.624 C 146.388 123.146,146.217 123.574,146.008 123.574 C 145.798 123.574,145.627 123.831,145.627 124.144 C 145.627 124.458,145.371 124.715,145.057 124.715 C 144.709 124.715,144.487 125.069,144.487 125.625 C 144.487 126.125,144.218 126.638,143.890 126.764 C 143.494 126.916,143.375 127.248,143.536 127.755 C 143.707 128.296,143.605 128.517,143.182 128.517 C 142.854 128.517,142.586 128.774,142.586 129.087 C 142.586 129.401,142.329 129.658,142.015 129.658 C 141.660 129.658,141.445 130.017,141.445 130.608 C 141.445 131.131,141.274 131.559,141.065 131.559 C 140.856 131.559,140.684 131.987,140.684 132.510 C 140.684 133.101,140.469 133.460,140.114 133.460 C 139.800 133.460,139.544 133.698,139.544 133.990 C 139.544 134.281,139.287 134.618,138.973 134.738 C 138.660 134.859,138.403 135.305,138.403 135.730 C 138.403 136.154,138.232 136.502,138.023 136.502 C 137.814 136.502,137.643 136.838,137.643 137.249 C 137.643 137.660,137.122 138.529,136.486 139.180 C 135.689 139.995,135.401 140.590,135.560 141.092 C 135.735 141.644,135.647 141.765,135.196 141.592 C 134.735 141.415,134.601 141.629,134.601 142.545 C 134.601 143.195,134.417 143.726,134.193 143.726 C 133.556 143.726,132.761 144.679,132.487 145.772 C 132.349 146.320,132.084 146.768,131.898 146.768 C 131.711 146.768,131.559 147.196,131.559 147.719 C 131.559 148.241,131.364 148.669,131.126 148.669 C 130.486 148.669,129.684 149.875,129.670 150.856 C 129.663 151.326,129.464 151.711,129.227 151.711 C 128.589 151.711,127.376 153.243,127.376 154.051 C 127.376 154.437,127.205 154.753,126.996 154.753 C 126.787 154.753,126.616 155.181,126.616 155.703 C 126.616 156.295,126.401 156.654,126.046 156.654 C 125.732 156.654,125.475 156.911,125.475 157.224 C 125.475 157.538,125.307 157.795,125.102 157.795 C 124.897 157.795,124.622 158.222,124.491 158.745 C 124.360 159.268,124.100 159.696,123.913 159.696 C 123.727 159.696,123.574 160.124,123.574 160.646 C 123.574 161.238,123.359 161.597,123.004 161.597 C 122.649 161.597,122.433 161.956,122.433 162.548 C 122.433 163.070,122.262 163.498,122.053 163.498 C 121.844 163.498,121.673 164.011,121.673 164.639 C 121.673 165.399,121.483 165.779,121.103 165.779 C 120.748 165.779,120.532 166.139,120.532 166.730 C 120.532 167.322,120.317 167.681,119.962 167.681 C 119.607 167.681,119.392 168.040,119.392 168.631 C 119.392 169.154,119.221 169.582,119.011 169.582 C 118.802 169.582,118.631 170.523,118.631 171.673 C 118.631 173.278,118.499 173.764,118.061 173.764 C 117.632 173.764,117.490 174.224,117.490 175.625 C 117.490 176.830,117.311 177.554,116.981 177.681 C 116.593 177.830,116.491 178.795,116.556 181.714 C 116.624 184.769,116.534 185.551,116.115 185.551 C 115.711 185.551,115.589 186.257,115.589 188.593 C 115.589 190.908,115.713 191.635,116.108 191.635 C 116.518 191.635,116.605 192.435,116.525 195.464 C 116.446 198.466,116.540 199.336,116.958 199.497 C 117.338 199.643,117.490 200.398,117.490 202.132 C 117.490 204.039,117.613 204.563,118.061 204.563 C 118.473 204.563,118.631 204.985,118.631 206.084 C 118.631 206.920,118.802 207.605,119.011 207.605 C 119.221 207.605,119.392 208.209,119.392 208.947 C 119.392 209.790,119.604 210.372,119.962 210.509 C 120.276 210.629,120.532 211.137,120.532 211.638 C 120.532 212.193,120.755 212.548,121.103 212.548 C 121.458 212.548,121.673 212.907,121.673 213.498 C 121.673 214.021,121.844 214.449,122.053 214.449 C 122.262 214.449,122.433 214.838,122.433 215.315 C 122.433 216.144,123.590 217.490,124.303 217.490 C 124.491 217.490,124.564 217.795,124.467 218.167 C 124.278 218.890,125.470 220.532,126.185 220.532 C 126.422 220.532,126.616 220.960,126.616 221.483 C 126.616 222.006,126.787 222.433,126.996 222.433 C 127.205 222.433,127.376 222.690,127.376 223.004 C 127.376 223.317,127.633 223.574,127.947 223.574 C 128.260 223.574,128.517 223.831,128.517 224.144 C 128.517 224.458,128.700 224.715,128.924 224.715 C 129.451 224.715,130.418 225.682,130.418 226.209 C 130.418 226.433,130.675 226.616,130.989 226.616 C 131.302 226.616,131.559 226.844,131.559 227.122 C 131.559 227.400,131.987 227.857,132.510 228.137 C 133.032 228.417,133.460 228.873,133.460 229.152 C 133.460 229.430,133.717 229.658,134.030 229.658 C 134.344 229.658,134.601 229.841,134.601 230.065 C 134.601 230.592,135.568 231.559,136.095 231.559 C 136.319 231.559,136.502 231.816,136.502 232.129 C 136.502 232.484,136.861 232.700,137.452 232.700 C 137.975 232.700,138.403 232.871,138.403 233.080 C 138.403 233.289,138.660 233.460,138.973 233.460 C 139.287 233.460,139.544 233.717,139.544 234.030 C 139.544 234.385,139.903 234.601,140.494 234.601 C 141.086 234.601,141.445 234.816,141.445 235.171 C 141.445 235.485,141.702 235.741,142.015 235.741 C 142.329 235.741,142.586 235.913,142.586 236.122 C 142.586 236.331,143.013 236.502,143.536 236.502 C 144.128 236.502,144.487 236.717,144.487 237.072 C 144.487 237.420,144.841 237.643,145.397 237.643 C 145.897 237.643,146.405 237.899,146.525 238.213 C 146.646 238.527,147.177 238.783,147.707 238.783 C 148.236 238.783,148.669 238.954,148.669 239.163 C 148.669 239.373,149.273 239.544,150.012 239.544 C 150.855 239.544,151.436 239.756,151.574 240.114 C 151.707 240.461,152.282 240.684,153.042 240.684 C 153.802 240.684,154.377 240.908,154.510 241.255 C 154.665 241.657,155.292 241.825,156.642 241.825 C 157.694 241.825,158.555 241.996,158.555 242.205 C 158.555 242.430,159.936 242.586,161.937 242.586 C 164.591 242.586,165.365 242.708,165.537 243.156 C 165.729 243.658,170.480 243.726,205.121 243.726 C 239.859 243.726,244.487 243.659,244.487 243.156 C 244.487 242.692,245.117 242.586,247.877 242.586 C 249.869 242.586,251.321 242.424,251.398 242.193 C 251.470 241.978,252.354 241.784,253.362 241.764 C 254.536 241.741,255.266 241.540,255.395 241.206 C 255.517 240.888,256.172 240.684,257.075 240.684 C 258.137 240.684,258.555 240.523,258.555 240.114 C 258.555 239.702,258.978 239.544,260.076 239.544 C 260.913 239.544,261.597 239.373,261.597 239.163 C 261.597 238.954,262.025 238.783,262.548 238.783 C 263.139 238.783,263.498 238.568,263.498 238.213 C 263.498 237.858,263.857 237.643,264.449 237.643 C 265.040 237.643,265.399 237.427,265.399 237.072 C 265.399 236.721,265.756 236.502,266.327 236.502 C 266.838 236.502,267.361 236.331,267.490 236.122 C 267.620 235.913,268.020 235.741,268.379 235.741 C 269.057 235.741,270.342 234.494,270.342 233.836 C 270.342 233.629,270.727 233.455,271.198 233.448 C 272.178 233.434,273.384 232.631,273.384 231.992 C 273.384 231.754,273.568 231.559,273.794 231.559 C 274.326 231.559,276.426 229.459,276.426 228.927 C 276.426 228.701,276.683 228.517,276.996 228.517 C 277.310 228.517,277.567 228.358,277.567 228.163 C 277.567 227.969,277.952 227.755,278.422 227.688 C 279.035 227.601,279.312 227.270,279.398 226.521 C 279.464 225.946,279.690 225.475,279.900 225.475 C 280.406 225.475,281.369 224.496,281.369 223.982 C 281.369 223.757,281.553 223.574,281.778 223.574 C 282.495 223.574,284.411 221.382,284.411 220.562 C 284.411 220.113,284.657 219.772,284.981 219.772 C 285.295 219.772,285.551 219.515,285.551 219.202 C 285.551 218.888,285.722 218.631,285.932 218.631 C 286.141 218.631,286.312 218.203,286.312 217.681 C 286.312 217.089,286.527 216.730,286.882 216.730 C 287.262 216.730,287.452 216.350,287.452 215.589 C 287.452 214.829,287.643 214.449,288.023 214.449 C 288.378 214.449,288.593 214.090,288.593 213.498 C 288.593 212.975,288.764 212.548,288.973 212.548 C 289.183 212.548,289.354 212.120,289.354 211.597 C 289.354 211.005,289.569 210.646,289.924 210.646 C 290.336 210.646,290.494 210.224,290.494 209.125 C 290.494 208.027,290.653 207.605,291.065 207.605 C 291.477 207.605,291.635 207.182,291.635 206.084 C 291.635 205.247,291.806 204.563,292.015 204.563 C 292.224 204.563,292.395 203.726,292.395 202.702 C 292.395 201.399,292.566 200.776,292.966 200.623 C 293.414 200.451,293.536 199.676,293.536 197.011 C 293.536 194.345,293.658 193.571,294.106 193.399 C 294.570 193.221,294.677 192.319,294.677 188.593 C 294.677 184.867,294.570 183.965,294.106 183.788 C 293.659 183.616,293.536 182.842,293.536 180.187 C 293.536 177.435,293.430 176.806,292.966 176.806 C 292.528 176.806,292.395 176.320,292.395 174.715 C 292.395 173.565,292.224 172.624,292.015 172.624 C 291.806 172.624,291.635 172.019,291.635 171.281 C 291.635 170.438,291.423 169.857,291.065 169.719 C 290.751 169.599,290.494 169.091,290.494 168.590 C 290.494 168.035,290.272 167.681,289.924 167.681 C 289.512 167.681,289.354 167.258,289.354 166.160 C 289.354 165.323,289.183 164.639,288.973 164.639 C 288.764 164.639,288.593 164.211,288.593 163.688 C 288.593 163.097,288.378 162.738,288.023 162.738 C 287.709 162.738,287.452 162.481,287.452 162.167 C 287.452 161.854,287.196 161.597,286.882 161.597 C 286.527 161.597,286.312 161.238,286.312 160.646 C 286.312 160.124,286.141 159.696,285.932 159.696 C 285.722 159.696,285.551 159.268,285.551 158.745 C 285.551 158.154,285.336 157.795,284.981 157.795 C 284.667 157.795,284.411 157.538,284.411 157.224 C 284.411 156.911,284.240 156.654,284.030 156.654 C 283.821 156.654,283.650 156.226,283.650 155.703 C 283.650 155.112,283.435 154.753,283.080 154.753 C 282.734 154.753,282.510 154.400,282.510 153.856 C 282.510 153.342,282.103 152.653,281.559 152.244 C 281.029 151.846,280.608 151.145,280.608 150.658 C 280.608 150.179,280.352 149.688,280.038 149.567 C 279.724 149.447,279.468 149.048,279.468 148.682 C 279.468 148.315,279.040 147.694,278.517 147.301 C 277.905 146.842,277.567 146.214,277.567 145.537 C 277.567 144.857,277.366 144.487,276.996 144.487 C 276.680 144.487,276.426 144.149,276.426 143.731 C 276.426 142.853,275.296 141.393,274.837 141.677 C 274.665 141.783,274.525 141.347,274.525 140.707 C 274.525 139.926,274.337 139.544,273.954 139.544 C 273.599 139.544,273.384 139.185,273.384 138.593 C 273.384 138.070,273.213 137.643,273.004 137.643 C 272.795 137.643,272.624 137.386,272.624 137.072 C 272.624 136.759,272.367 136.502,272.053 136.502 C 271.698 136.502,271.483 136.143,271.483 135.551 C 271.483 134.960,271.267 134.601,270.913 134.601 C 270.558 134.601,270.342 134.242,270.342 133.650 C 270.342 133.127,270.171 132.700,269.962 132.700 C 269.753 132.700,269.582 132.443,269.582 132.129 C 269.582 131.816,269.325 131.559,269.011 131.559 C 268.657 131.559,268.441 131.200,268.441 130.608 C 268.441 130.086,268.270 129.658,268.061 129.658 C 267.852 129.658,267.681 129.401,267.681 129.087 C 267.681 128.774,267.424 128.517,267.110 128.517 C 266.755 128.517,266.540 128.158,266.540 127.567 C 266.540 126.975,266.324 126.616,265.970 126.616 C 265.615 126.616,265.399 126.257,265.399 125.665 C 265.399 125.143,265.228 124.715,265.019 124.715 C 264.810 124.715,264.639 124.458,264.639 124.144 C 264.639 123.831,264.382 123.574,264.068 123.574 C 263.714 123.574,263.498 123.215,263.498 122.624 C 263.498 122.032,263.283 121.673,262.928 121.673 C 262.573 121.673,262.357 121.314,262.357 120.722 C 262.357 120.200,262.186 119.772,261.977 119.772 C 261.768 119.772,261.597 119.515,261.597 119.202 C 261.597 118.888,261.340 118.631,261.027 118.631 C 260.672 118.631,260.456 118.272,260.456 117.681 C 260.456 117.089,260.241 116.730,259.886 116.730 C 259.552 116.730,259.311 116.376,259.303 115.875 C 259.290 114.894,258.487 113.688,257.848 113.688 C 257.609 113.688,257.414 113.372,257.414 112.986 C 257.414 111.572,255.658 108.745,254.780 108.745 C 254.556 108.745,254.373 108.232,254.373 107.605 C 254.373 106.977,254.202 106.464,253.992 106.464 C 253.783 106.464,253.612 106.116,253.612 105.691 C 253.612 105.267,253.356 104.821,253.042 104.700 C 252.728 104.580,252.471 104.225,252.471 103.911 C 252.471 103.560,252.252 103.425,251.901 103.560 C 251.484 103.720,251.331 103.512,251.331 102.788 C 251.331 102.221,250.925 101.422,250.380 100.917 C 249.857 100.433,249.430 99.686,249.430 99.258 C 249.430 98.829,249.259 98.479,249.049 98.479 C 248.840 98.479,248.669 98.132,248.669 97.707 C 248.669 97.282,248.413 96.836,248.099 96.715 C 247.785 96.595,247.529 96.258,247.529 95.967 C 247.529 95.676,247.272 95.437,246.958 95.437 C 246.603 95.437,246.388 95.078,246.388 94.487 C 246.388 93.964,246.217 93.536,246.008 93.536 C 245.798 93.536,245.627 93.189,245.627 92.764 C 245.627 92.339,245.371 91.893,245.057 91.772 C 244.743 91.652,244.487 91.315,244.487 91.024 C 244.487 90.733,244.230 90.494,243.916 90.494 C 243.561 90.494,243.346 90.135,243.346 89.544 C 243.346 89.021,243.175 88.593,242.966 88.593 C 242.757 88.593,242.586 88.165,242.586 87.643 C 242.586 87.051,242.370 86.692,242.015 86.692 C 241.702 86.692,241.445 86.435,241.445 86.122 C 241.445 85.808,241.274 85.551,241.065 85.551 C 240.856 85.551,240.684 85.204,240.684 84.779 C 240.684 84.354,240.428 83.908,240.114 83.788 C 239.800 83.667,239.544 83.172,239.544 82.687 C 239.544 82.167,239.271 81.733,238.878 81.631 C 238.245 81.465,238.245 81.455,238.878 81.413 C 239.244 81.389,239.544 81.198,239.544 80.989 C 239.544 80.779,239.971 80.608,240.494 80.608 C 241.086 80.608,241.445 80.393,241.445 80.038 C 241.445 79.724,241.640 79.468,241.878 79.468 C 242.517 79.468,243.320 78.262,243.334 77.281 C 243.341 76.780,243.582 76.426,243.916 76.426 C 244.387 76.426,244.487 75.729,244.487 72.433 C 244.487 69.138,244.387 68.441,243.916 68.441 C 243.592 68.441,243.346 68.100,243.346 67.651 C 243.346 66.650,241.362 64.639,240.374 64.639 C 239.962 64.639,239.527 64.382,239.406 64.068 C 239.074 63.202,168.441 63.202,168.441 64.068 M206.464 115.019 C 206.464 115.333,206.641 115.589,206.857 115.589 C 208.519 115.589,209.506 117.861,209.506 121.686 L 209.506 125.475 211.597 125.475 C 213.202 125.475,213.688 125.608,213.688 126.046 C 213.688 126.499,214.240 126.616,216.377 126.616 C 218.260 126.616,219.237 126.787,219.636 127.186 C 219.950 127.500,220.707 127.757,221.320 127.757 C 221.932 127.757,222.433 127.928,222.433 128.137 C 222.433 128.346,222.941 128.517,223.562 128.517 C 224.362 128.517,224.633 128.669,224.491 129.038 C 224.381 129.325,224.557 129.826,224.883 130.152 C 225.209 130.478,225.475 131.184,225.475 131.722 C 225.475 132.337,225.687 132.700,226.046 132.700 C 226.359 132.700,226.616 132.852,226.616 133.039 C 226.616 133.226,226.359 133.477,226.046 133.598 C 225.714 133.725,225.475 134.294,225.475 134.956 C 225.475 136.206,223.658 138.403,222.624 138.403 C 222.297 138.403,221.931 138.660,221.811 138.973 C 221.546 139.662,218.769 139.768,218.546 139.098 C 218.463 138.848,217.363 138.577,216.037 138.482 C 214.738 138.388,213.583 138.160,213.470 137.977 C 213.201 137.542,202.662 137.539,202.662 137.974 C 202.662 138.157,201.977 138.415,201.141 138.549 C 200.304 138.683,199.620 138.961,199.620 139.168 C 199.620 139.375,199.363 139.544,199.049 139.544 C 198.736 139.544,198.479 139.800,198.479 140.114 C 198.479 140.428,198.296 140.684,198.072 140.684 C 195.997 140.684,195.824 148.311,197.852 150.399 C 198.553 151.121,199.408 151.711,199.753 151.711 C 200.098 151.711,200.380 151.882,200.380 152.091 C 200.380 152.300,200.894 152.471,201.521 152.471 C 202.281 152.471,202.662 152.662,202.662 153.042 C 202.662 153.397,203.021 153.612,203.612 153.612 C 204.204 153.612,204.563 153.828,204.563 154.183 C 204.563 154.537,204.922 154.753,205.513 154.753 C 206.036 154.753,206.464 154.924,206.464 155.133 C 206.464 155.342,206.897 155.513,207.426 155.513 C 207.956 155.513,208.487 155.770,208.608 156.084 C 208.743 156.436,209.321 156.654,210.117 156.654 C 210.826 156.654,211.407 156.825,211.407 157.034 C 211.407 157.243,212.091 157.414,212.928 157.414 C 214.026 157.414,214.449 157.573,214.449 157.985 C 214.449 158.333,214.803 158.555,215.359 158.555 C 215.859 158.555,216.367 158.812,216.487 159.125 C 216.608 159.439,217.139 159.696,217.669 159.696 C 218.198 159.696,218.631 159.867,218.631 160.076 C 218.631 160.285,219.059 160.456,219.582 160.456 C 220.173 160.456,220.532 160.672,220.532 161.027 C 220.532 161.340,220.789 161.597,221.103 161.597 C 221.416 161.597,221.673 161.854,221.673 162.167 C 221.673 162.482,222.010 162.738,222.425 162.738 C 223.302 162.738,227.376 166.665,227.376 167.511 C 227.376 167.826,227.633 168.183,227.947 168.304 C 228.260 168.424,228.517 168.761,228.517 169.052 C 228.517 169.343,228.774 169.582,229.087 169.582 C 229.442 169.582,229.658 169.941,229.658 170.532 C 229.658 171.055,229.829 171.483,230.038 171.483 C 230.253 171.483,230.418 172.560,230.418 173.954 C 230.418 175.898,230.540 176.426,230.989 176.426 C 231.426 176.426,231.559 176.912,231.559 178.517 C 231.559 180.123,231.426 180.608,230.989 180.608 C 230.551 180.608,230.418 181.094,230.418 182.700 C 230.418 183.850,230.247 184.791,230.038 184.791 C 229.829 184.791,229.658 185.390,229.658 186.122 C 229.658 187.051,229.486 187.452,229.087 187.452 C 228.707 187.452,228.517 187.833,228.517 188.593 C 228.517 189.221,228.334 189.734,228.110 189.734 C 227.583 189.734,226.616 190.701,226.616 191.228 C 226.616 191.452,226.359 191.635,226.046 191.635 C 225.732 191.635,225.475 191.818,225.475 192.042 C 225.475 192.569,224.508 193.536,223.982 193.536 C 223.757 193.536,223.574 193.793,223.574 194.106 C 223.574 194.420,223.391 194.677,223.167 194.677 C 222.640 194.677,221.673 195.644,221.673 196.171 C 221.673 196.395,221.160 196.578,220.532 196.578 C 219.772 196.578,219.392 196.768,219.392 197.148 C 219.392 197.503,219.033 197.719,218.441 197.719 C 217.871 197.719,217.490 197.936,217.490 198.261 C 217.490 198.642,217.152 198.761,216.358 198.661 C 215.702 198.578,214.993 198.749,214.674 199.069 C 214.371 199.372,213.512 199.620,212.765 199.620 C 211.811 199.620,211.407 199.790,211.407 200.190 C 211.407 200.545,211.048 200.760,210.456 200.760 L 209.506 200.760 209.506 205.092 C 209.506 208.717,209.406 209.463,208.896 209.658 C 208.518 209.804,208.377 210.129,208.526 210.517 C 208.818 211.278,207.564 212.548,206.520 212.548 C 206.116 212.548,205.686 212.804,205.566 213.118 C 205.446 213.432,204.914 213.688,204.385 213.688 C 203.782 213.688,203.422 213.475,203.422 213.118 C 203.422 212.763,203.063 212.548,202.471 212.548 C 201.949 212.548,201.521 212.376,201.521 212.167 C 201.521 211.958,201.264 211.787,200.951 211.787 C 200.637 211.787,200.380 211.530,200.380 211.217 C 200.380 210.903,200.209 210.646,200.000 210.646 C 199.768 210.646,199.620 208.872,199.620 206.084 L 199.620 201.521 198.099 201.521 C 197.262 201.521,196.578 201.350,196.578 201.141 C 196.578 200.914,195.120 200.760,192.966 200.760 C 190.008 200.760,189.354 200.657,189.354 200.190 C 189.354 199.759,188.889 199.620,187.452 199.620 C 185.980 199.620,185.551 199.485,185.551 199.024 C 185.551 198.628,185.327 198.499,184.882 198.640 C 183.993 198.923,180.608 195.798,180.608 194.695 C 180.608 194.253,180.352 193.794,180.038 193.674 C 179.724 193.553,179.468 193.064,179.468 192.586 C 179.468 192.107,179.724 191.618,180.038 191.497 C 180.352 191.377,180.614 190.974,180.620 190.601 C 180.635 189.770,181.488 188.593,182.076 188.593 C 182.314 188.593,182.510 188.398,182.510 188.160 C 182.510 187.258,183.891 186.716,186.217 186.704 C 187.556 186.697,188.593 186.858,188.593 187.072 C 188.593 187.281,189.449 187.452,190.494 187.452 C 191.931 187.452,192.395 187.592,192.395 188.023 C 192.395 188.512,193.536 188.593,200.380 188.593 C 207.224 188.593,208.365 188.512,208.365 188.023 C 208.365 187.664,208.727 187.452,209.343 187.452 C 210.345 187.452,211.407 186.684,211.407 185.959 C 211.407 185.735,211.576 185.551,211.783 185.551 C 212.595 185.551,213.688 184.191,213.688 183.180 C 213.688 182.597,213.900 181.779,214.160 181.364 C 214.535 180.762,214.535 180.454,214.160 179.853 C 213.900 179.438,213.688 178.577,213.688 177.940 C 213.688 177.262,213.452 176.692,213.118 176.563 C 212.804 176.443,212.548 176.059,212.548 175.709 C 212.548 174.886,211.230 173.764,210.262 173.764 C 209.843 173.764,209.506 173.510,209.506 173.194 C 209.506 172.880,209.267 172.624,208.976 172.624 C 208.685 172.624,208.348 172.367,208.228 172.053 C 208.090 171.695,207.509 171.483,206.666 171.483 C 205.927 171.483,205.323 171.312,205.323 171.103 C 205.323 170.894,204.895 170.722,204.373 170.722 C 203.781 170.722,203.422 170.507,203.422 170.152 C 203.422 169.740,203.000 169.582,201.901 169.582 C 200.757 169.582,200.380 169.430,200.380 168.970 C 200.380 168.508,200.148 168.417,199.430 168.597 C 198.728 168.773,198.479 168.684,198.479 168.258 C 198.479 167.838,198.065 167.681,196.958 167.681 C 195.860 167.681,195.437 167.522,195.437 167.110 C 195.437 166.755,195.078 166.540,194.487 166.540 C 193.964 166.540,193.536 166.369,193.536 166.160 C 193.536 165.951,193.108 165.779,192.586 165.779 C 191.994 165.779,191.635 165.564,191.635 165.209 C 191.635 164.829,191.255 164.639,190.494 164.639 C 189.867 164.639,189.354 164.455,189.354 164.231 C 189.354 163.506,188.292 162.738,187.290 162.738 C 186.674 162.738,186.312 162.526,186.312 162.167 C 186.312 161.854,186.141 161.597,185.932 161.597 C 185.722 161.597,185.551 161.322,185.551 160.986 C 185.551 160.599,185.342 160.455,184.981 160.594 C 184.634 160.727,184.411 160.594,184.411 160.254 C 184.411 159.947,184.240 159.696,184.030 159.696 C 183.821 159.696,183.650 159.439,183.650 159.125 C 183.650 158.812,183.394 158.555,183.080 158.555 C 182.725 158.555,182.510 158.196,182.510 157.605 C 182.510 157.013,182.294 156.654,181.939 156.654 C 181.625 156.654,181.369 156.397,181.369 156.084 C 181.369 155.770,181.198 155.513,180.989 155.513 C 180.779 155.513,180.608 154.909,180.608 154.171 C 180.608 153.328,180.396 152.746,180.038 152.609 C 179.572 152.430,179.468 151.495,179.468 147.488 C 179.468 143.384,179.561 142.586,180.038 142.586 C 180.450 142.586,180.608 142.163,180.608 141.065 C 180.608 140.228,180.779 139.544,180.989 139.544 C 181.198 139.544,181.369 139.116,181.369 138.593 C 181.369 138.002,181.584 137.643,181.939 137.643 C 182.253 137.643,182.510 137.404,182.510 137.113 C 182.510 136.822,182.766 136.485,183.080 136.364 C 183.394 136.244,183.650 135.798,183.650 135.373 C 183.650 134.948,183.821 134.601,184.030 134.601 C 184.240 134.601,184.411 134.344,184.411 134.030 C 184.411 133.717,184.667 133.460,184.981 133.460 C 185.295 133.460,185.551 133.289,185.551 133.080 C 185.551 132.871,185.899 132.700,186.324 132.700 C 186.749 132.700,187.195 132.443,187.315 132.129 C 187.435 131.816,187.772 131.559,188.063 131.559 C 188.355 131.559,188.593 131.302,188.593 130.989 C 188.593 130.634,188.952 130.418,189.544 130.418 C 190.067 130.418,190.494 130.247,190.494 130.038 C 190.494 129.829,190.922 129.658,191.445 129.658 C 192.036 129.658,192.395 129.442,192.395 129.087 C 192.395 128.736,192.752 128.517,193.324 128.517 C 193.834 128.517,194.357 128.346,194.487 128.137 C 194.616 127.928,195.310 127.757,196.030 127.757 C 196.940 127.757,197.338 127.583,197.338 127.186 C 197.338 126.806,197.719 126.616,198.479 126.616 L 199.620 126.616 199.620 122.624 C 199.620 120.215,199.771 118.631,200.000 118.631 C 200.209 118.631,200.380 118.203,200.380 117.681 C 200.380 117.089,200.596 116.730,200.951 116.730 C 201.264 116.730,201.521 116.473,201.521 116.160 C 201.521 115.805,201.880 115.589,202.471 115.589 C 203.063 115.589,203.422 115.374,203.422 115.019 C 203.422 114.607,203.845 114.449,204.943 114.449 C 206.041 114.449,206.464 114.607,206.464 115.019 M298.479 242.205 C 298.479 242.414,297.795 242.586,296.958 242.586 C 295.860 242.586,295.437 242.744,295.437 243.156 C 295.437 243.504,295.083 243.726,294.527 243.726 C 294.027 243.726,293.514 243.997,293.387 244.327 C 293.215 244.775,292.867 244.864,292.015 244.677 C 291.164 244.490,290.815 244.579,290.643 245.027 C 290.495 245.412,289.947 245.627,289.111 245.627 C 288.304 245.627,287.726 245.844,287.590 246.198 C 287.470 246.511,286.962 246.768,286.461 246.768 C 285.961 246.768,285.551 246.939,285.551 247.148 C 285.551 247.357,284.947 247.529,284.209 247.529 C 283.366 247.529,282.784 247.741,282.647 248.099 C 282.527 248.413,282.019 248.669,281.518 248.669 C 280.963 248.669,280.608 248.891,280.608 249.240 C 280.608 249.651,280.186 249.810,279.087 249.810 C 278.251 249.810,277.567 249.981,277.567 250.190 C 277.567 250.399,277.139 250.570,276.616 250.570 C 276.025 250.570,275.665 250.786,275.665 251.141 C 275.665 251.553,275.243 251.711,274.144 251.711 C 273.308 251.711,272.624 251.860,272.624 252.043 C 272.624 252.225,271.939 252.484,271.103 252.617 C 270.266 252.751,269.582 253.030,269.582 253.236 C 269.582 253.443,269.154 253.612,268.631 253.612 C 268.040 253.612,267.681 253.828,267.681 254.183 C 267.681 254.592,267.263 254.753,266.200 254.753 C 265.206 254.753,264.645 254.949,264.491 255.349 C 264.339 255.746,264.007 255.865,263.498 255.703 C 262.989 255.542,262.657 255.660,262.505 256.057 C 262.359 256.437,261.807 256.654,260.986 256.654 C 260.093 256.654,259.696 256.829,259.696 257.224 C 259.696 257.605,259.316 257.795,258.555 257.795 C 257.928 257.795,257.414 257.966,257.414 258.175 C 257.414 258.384,256.810 258.555,256.072 258.555 C 255.229 258.555,254.647 258.767,254.510 259.125 C 254.390 259.439,253.882 259.696,253.381 259.696 C 252.826 259.696,252.471 259.918,252.471 260.266 C 252.471 260.667,252.067 260.837,251.114 260.837 C 249.586 260.837,248.669 261.539,248.669 262.710 C 248.669 263.449,248.883 263.498,252.091 263.498 C 254.880 263.498,255.513 263.604,255.513 264.068 C 255.513 264.516,256.037 264.639,257.944 264.639 C 259.754 264.639,260.431 264.784,260.594 265.209 C 260.731 265.567,261.313 265.779,262.155 265.779 C 262.894 265.779,263.498 265.951,263.498 266.160 C 263.498 266.369,263.926 266.540,264.449 266.540 C 265.040 266.540,265.399 266.755,265.399 267.110 C 265.399 267.424,265.638 267.681,265.929 267.681 C 266.220 267.681,266.557 267.937,266.677 268.251 C 266.798 268.565,267.164 268.821,267.490 268.821 C 267.817 268.821,268.183 268.565,268.304 268.251 C 268.424 267.937,268.932 267.681,269.432 267.681 C 269.988 267.681,270.342 267.458,270.342 267.110 C 270.342 266.730,270.722 266.540,271.483 266.540 C 272.110 266.540,272.624 266.369,272.624 266.160 C 272.624 265.951,273.051 265.779,273.574 265.779 C 274.166 265.779,274.525 265.564,274.525 265.209 C 274.525 264.854,274.884 264.639,275.475 264.639 C 276.067 264.639,276.426 264.423,276.426 264.068 C 276.426 263.714,276.785 263.498,277.376 263.498 C 277.899 263.498,278.327 263.327,278.327 263.118 C 278.327 262.909,278.840 262.738,279.468 262.738 C 280.228 262.738,280.608 262.548,280.608 262.167 C 280.608 261.844,280.949 261.597,281.396 261.597 C 281.829 261.597,282.433 261.348,282.738 261.043 C 283.043 260.738,283.544 260.585,283.851 260.703 C 284.201 260.837,284.411 260.688,284.411 260.307 C 284.411 259.909,284.742 259.696,285.361 259.696 C 285.953 259.696,286.312 259.480,286.312 259.125 C 286.312 258.745,286.692 258.555,287.452 258.555 C 288.080 258.555,288.593 258.384,288.593 258.175 C 288.593 257.966,289.021 257.795,289.544 257.795 C 290.135 257.795,290.494 257.579,290.494 257.224 C 290.494 256.869,290.853 256.654,291.445 256.654 C 292.036 256.654,292.395 256.439,292.395 256.084 C 292.395 255.703,292.776 255.513,293.536 255.513 C 294.163 255.513,294.677 255.342,294.677 255.133 C 294.677 254.924,295.105 254.753,295.627 254.753 C 296.219 254.753,296.578 254.537,296.578 254.183 C 296.578 253.828,296.937 253.612,297.529 253.612 C 298.120 253.612,298.479 253.397,298.479 253.042 C 298.479 252.687,298.838 252.471,299.430 252.471 C 299.952 252.471,300.380 252.300,300.380 252.091 C 300.380 251.882,300.894 251.711,301.521 251.711 C 302.281 251.711,302.662 251.521,302.662 251.141 C 302.662 250.786,303.021 250.570,303.612 250.570 C 304.135 250.570,304.563 250.399,304.563 250.190 C 304.563 249.981,304.990 249.810,305.513 249.810 C 306.105 249.810,306.464 249.594,306.464 249.240 C 306.464 248.885,306.823 248.669,307.414 248.669 C 308.006 248.669,308.365 248.454,308.365 248.099 C 308.365 247.719,308.745 247.529,309.506 247.529 C 310.133 247.529,310.646 247.357,310.646 247.148 C 310.646 246.939,311.074 246.768,311.597 246.768 C 312.452 246.768,312.548 246.616,312.548 245.247 C 312.548 243.873,312.454 243.726,311.585 243.726 C 311.056 243.726,310.524 243.470,310.404 243.156 C 310.269 242.804,309.691 242.586,308.895 242.586 C 308.185 242.586,307.605 242.414,307.605 242.205 C 307.605 241.973,305.830 241.825,303.042 241.825 C 300.253 241.825,298.479 241.973,298.479 242.205 M330.418 246.198 C 330.418 246.629,329.954 246.768,328.517 246.768 C 327.471 246.768,326.616 246.939,326.616 247.148 C 326.616 247.357,326.183 247.529,325.653 247.529 C 325.124 247.529,324.592 247.785,324.472 248.099 C 324.352 248.413,323.844 248.669,323.343 248.669 C 322.788 248.669,322.433 248.891,322.433 249.240 C 322.433 249.594,322.074 249.810,321.483 249.810 C 320.960 249.810,320.532 249.981,320.532 250.190 C 320.532 250.399,320.105 250.570,319.582 250.570 C 318.990 250.570,318.631 250.786,318.631 251.141 C 318.631 251.525,318.246 251.711,317.450 251.711 C 316.599 251.711,316.325 251.858,316.471 252.238 C 316.609 252.598,316.458 252.709,315.998 252.589 C 315.626 252.492,315.053 252.682,314.723 253.012 C 314.393 253.342,313.768 253.612,313.335 253.612 C 312.889 253.612,312.548 253.859,312.548 254.183 C 312.548 254.531,312.193 254.753,311.638 254.753 C 311.137 254.753,310.634 254.996,310.520 255.294 C 310.394 255.623,310.009 255.755,309.534 255.631 C 309.030 255.499,308.671 255.644,308.519 256.041 C 308.390 256.378,307.874 256.654,307.374 256.654 C 306.818 256.654,306.464 256.876,306.464 257.224 C 306.464 257.579,306.105 257.795,305.513 257.795 C 304.990 257.795,304.563 257.966,304.563 258.175 C 304.563 258.384,304.135 258.555,303.612 258.555 C 303.021 258.555,302.662 258.771,302.662 259.125 C 302.662 259.482,302.301 259.696,301.699 259.696 C 301.170 259.696,300.638 259.952,300.518 260.266 C 300.397 260.580,299.889 260.837,299.389 260.837 C 298.889 260.837,298.479 261.008,298.479 261.217 C 298.479 261.426,298.051 261.597,297.529 261.597 C 296.937 261.597,296.578 261.812,296.578 262.167 C 296.578 262.522,296.219 262.738,295.627 262.738 C 295.105 262.738,294.677 262.909,294.677 263.118 C 294.677 263.327,294.420 263.498,294.106 263.498 C 293.793 263.498,293.536 263.755,293.536 264.068 C 293.536 264.423,293.177 264.639,292.586 264.639 C 291.994 264.639,291.635 264.854,291.635 265.209 C 291.635 265.589,291.255 265.779,290.494 265.779 C 289.867 265.779,289.354 265.951,289.354 266.160 C 289.354 266.369,288.926 266.540,288.403 266.540 C 287.812 266.540,287.452 266.755,287.452 267.110 C 287.452 267.465,287.093 267.681,286.502 267.681 C 285.910 267.681,285.551 267.896,285.551 268.251 C 285.551 268.606,285.192 268.821,284.601 268.821 C 284.078 268.821,283.650 268.981,283.650 269.176 C 283.650 269.372,283.180 269.585,282.605 269.652 C 282.016 269.719,281.601 269.980,281.654 270.247 C 281.713 270.543,281.318 270.722,280.608 270.722 C 279.981 270.722,279.468 270.890,279.468 271.095 C 279.468 271.301,279.040 271.576,278.517 271.707 C 277.994 271.838,277.567 272.098,277.567 272.285 C 277.567 272.471,277.139 272.624,276.616 272.624 C 276.025 272.624,275.665 272.839,275.665 273.194 C 275.665 273.508,275.409 273.764,275.095 273.764 C 274.664 273.764,274.525 274.229,274.525 275.665 C 274.525 277.102,274.664 277.567,275.095 277.567 C 275.446 277.567,275.665 277.923,275.665 278.495 C 275.665 279.005,275.837 279.529,276.046 279.658 C 276.255 279.787,276.426 280.482,276.426 281.201 C 276.426 282.111,276.600 282.510,276.996 282.510 C 277.471 282.510,277.567 283.270,277.567 287.072 L 277.567 291.635 279.087 291.635 C 280.186 291.635,280.608 291.477,280.608 291.065 C 280.608 290.736,280.952 290.494,281.420 290.494 C 281.867 290.494,282.629 290.067,283.113 289.544 C 283.598 289.021,284.271 288.593,284.610 288.593 C 285.308 288.593,286.312 287.712,286.312 287.099 C 286.312 286.875,286.825 286.692,287.452 286.692 C 288.213 286.692,288.593 286.502,288.593 286.122 C 288.593 285.793,288.937 285.551,289.405 285.551 C 289.852 285.551,290.613 285.124,291.098 284.601 C 291.582 284.078,292.329 283.650,292.758 283.650 C 293.196 283.650,293.536 283.401,293.536 283.080 C 293.536 282.725,293.895 282.510,294.487 282.510 C 295.010 282.510,295.437 282.338,295.437 282.129 C 295.437 281.920,295.694 281.749,296.008 281.749 C 296.321 281.749,296.578 281.492,296.578 281.179 C 296.578 280.824,296.937 280.608,297.529 280.608 C 298.051 280.608,298.479 280.456,298.479 280.269 C 298.479 280.083,298.907 279.823,299.430 279.692 C 299.952 279.561,300.380 279.285,300.380 279.080 C 300.380 278.875,300.637 278.707,300.951 278.707 C 301.264 278.707,301.521 278.451,301.521 278.137 C 301.521 277.782,301.880 277.567,302.471 277.567 C 302.994 277.567,303.422 277.395,303.422 277.186 C 303.422 276.977,303.770 276.806,304.194 276.806 C 304.619 276.806,305.065 276.549,305.186 276.236 C 305.306 275.922,305.643 275.665,305.934 275.665 C 306.226 275.665,306.464 275.409,306.464 275.095 C 306.464 274.740,306.823 274.525,307.414 274.525 C 307.937 274.525,308.365 274.354,308.365 274.144 C 308.365 273.935,308.622 273.764,308.935 273.764 C 309.249 273.764,309.506 273.508,309.506 273.194 C 309.506 272.839,309.865 272.624,310.456 272.624 C 311.048 272.624,311.407 272.408,311.407 272.053 C 311.407 271.698,311.766 271.483,312.357 271.483 C 312.880 271.483,313.308 271.312,313.308 271.103 C 313.308 270.894,313.565 270.722,313.878 270.722 C 314.192 270.722,314.449 270.466,314.449 270.152 C 314.449 269.802,314.804 269.582,315.368 269.582 C 315.873 269.582,316.343 269.453,316.413 269.297 C 316.483 269.140,317.182 268.685,317.966 268.286 C 318.750 267.887,319.392 267.331,319.392 267.050 C 319.392 266.763,319.797 266.540,320.320 266.540 C 320.830 266.540,321.354 266.369,321.483 266.160 C 321.612 265.951,322.012 265.779,322.371 265.779 C 323.049 265.779,324.335 264.532,324.335 263.874 C 324.335 263.667,324.775 263.498,325.312 263.498 C 326.315 263.498,327.376 262.730,327.376 262.004 C 327.376 261.780,327.890 261.597,328.517 261.597 C 329.144 261.597,329.658 261.437,329.658 261.242 C 329.658 261.047,330.035 260.768,330.496 260.622 C 331.475 260.311,332.319 259.542,332.319 258.963 C 332.319 258.738,332.833 258.555,333.460 258.555 C 334.087 258.555,334.601 258.403,334.601 258.216 C 334.601 258.030,335.029 257.770,335.551 257.639 C 336.074 257.507,336.502 257.232,336.502 257.027 C 336.502 256.822,336.759 256.654,337.072 256.654 C 337.386 256.654,337.643 256.397,337.643 256.084 C 337.643 255.729,338.002 255.513,338.593 255.513 C 339.116 255.513,339.544 255.342,339.544 255.133 C 339.544 254.924,339.891 254.753,340.316 254.753 C 340.741 254.753,341.187 254.496,341.307 254.183 C 341.428 253.869,341.765 253.612,342.056 253.612 C 342.347 253.612,342.586 253.356,342.586 253.042 C 342.586 252.687,342.945 252.471,343.536 252.471 C 344.369 252.471,344.487 252.307,344.487 251.141 C 344.487 250.211,344.315 249.810,343.916 249.810 C 343.603 249.810,343.346 249.553,343.346 249.240 C 343.346 248.885,342.987 248.669,342.395 248.669 C 341.804 248.669,341.445 248.454,341.445 248.099 C 341.445 247.744,341.086 247.529,340.494 247.529 C 339.971 247.529,339.544 247.357,339.544 247.148 C 339.544 246.939,338.603 246.768,337.452 246.768 C 335.847 246.768,335.361 246.636,335.361 246.198 C 335.361 245.749,334.833 245.627,332.890 245.627 C 330.946 245.627,330.418 245.749,330.418 246.198 M55.513 249.240 C 55.513 249.733,54.098 249.810,45.057 249.810 C 38.340 249.810,34.601 249.946,34.601 250.190 C 34.601 250.399,33.660 250.570,32.510 250.570 C 30.904 250.570,30.418 250.703,30.418 251.141 C 30.418 251.553,29.996 251.711,28.897 251.711 C 28.061 251.711,27.376 251.871,27.376 252.066 C 27.376 252.261,26.998 252.540,26.536 252.687 C 25.577 252.991,23.574 254.875,23.574 255.472 C 23.574 255.691,23.317 255.771,23.004 255.651 C 22.643 255.512,22.433 255.656,22.433 256.043 C 22.433 256.379,22.262 256.654,22.053 256.654 C 21.844 256.654,21.673 256.911,21.673 257.224 C 21.673 257.538,21.416 257.795,21.103 257.795 C 20.748 257.795,20.532 258.154,20.532 258.745 C 20.532 259.337,20.317 259.696,19.962 259.696 C 19.607 259.696,19.392 260.055,19.392 260.646 C 19.392 261.169,19.221 261.597,19.011 261.597 C 18.802 261.597,18.631 262.110,18.631 262.738 C 18.631 263.498,18.441 263.878,18.061 263.878 C 17.568 263.878,17.490 265.274,17.490 274.156 C 17.490 282.942,17.573 284.466,18.061 284.653 C 18.547 284.840,18.631 286.275,18.631 294.337 C 18.631 300.394,18.768 303.802,19.011 303.802 C 19.255 303.802,19.392 307.165,19.392 313.130 C 19.392 321.070,19.476 322.490,19.962 322.676 C 20.448 322.863,20.532 324.297,20.532 332.360 C 20.532 340.520,20.611 341.825,21.103 341.825 C 21.551 341.825,21.673 342.353,21.673 344.297 C 21.673 345.691,21.839 346.768,22.053 346.768 C 22.262 346.768,22.433 347.372,22.433 348.111 C 22.433 348.954,22.646 349.535,23.004 349.672 C 23.317 349.793,23.574 350.228,23.574 350.640 C 23.574 351.429,25.508 353.612,26.206 353.612 C 26.432 353.612,26.616 353.796,26.616 354.022 C 26.616 354.554,28.716 356.654,29.248 356.654 C 29.474 356.654,29.658 356.911,29.658 357.224 C 29.658 357.579,30.017 357.795,30.608 357.795 C 31.131 357.795,31.559 357.966,31.559 358.175 C 31.559 358.384,32.243 358.555,33.080 358.555 C 34.178 358.555,34.601 358.714,34.601 359.125 C 34.601 359.622,36.460 359.696,49.049 359.696 C 61.639 359.696,63.498 359.622,63.498 359.125 C 63.498 358.638,64.575 358.555,70.913 358.555 C 75.602 358.555,78.327 358.415,78.327 358.175 C 78.327 357.966,79.011 357.795,79.848 357.795 C 80.946 357.795,81.369 357.636,81.369 357.224 C 81.369 356.895,81.713 356.654,82.181 356.654 C 82.627 356.654,83.389 356.226,83.874 355.703 C 84.358 355.181,84.934 354.753,85.153 354.753 C 85.372 354.753,85.551 354.570,85.551 354.345 C 85.551 353.819,86.519 352.852,87.045 352.852 C 87.269 352.852,87.452 352.595,87.452 352.281 C 87.452 351.968,87.709 351.711,88.023 351.711 C 88.337 351.711,88.593 351.454,88.593 351.141 C 88.593 350.827,88.746 350.570,88.933 350.570 C 89.119 350.570,89.371 350.827,89.491 351.141 C 89.611 351.454,90.125 351.711,90.632 351.711 C 91.139 351.711,91.652 351.968,91.772 352.281 C 91.951 352.746,92.872 352.852,96.756 352.852 C 99.679 352.852,101.521 352.999,101.521 353.232 C 101.521 353.472,104.232 353.612,108.895 353.612 C 115.098 353.612,116.303 353.703,116.487 354.183 C 116.671 354.662,117.864 354.753,123.970 354.753 C 129.919 354.753,131.336 354.856,131.803 355.323 C 132.269 355.789,133.657 355.894,139.358 355.894 C 143.605 355.894,146.435 356.043,146.578 356.274 C 146.721 356.506,149.674 356.654,154.164 356.654 C 160.348 356.654,161.550 356.745,161.734 357.224 C 161.918 357.704,163.108 357.795,169.190 357.795 C 173.760 357.795,176.426 357.935,176.426 358.175 C 176.426 358.416,179.214 358.555,184.030 358.555 C 190.537 358.555,191.635 358.638,191.635 359.125 C 191.635 359.614,192.776 359.696,199.620 359.696 C 206.464 359.696,207.605 359.777,207.605 360.266 C 207.605 360.754,208.682 360.837,215.019 360.837 C 219.708 360.837,222.433 360.976,222.433 361.217 C 222.433 361.463,227.186 361.597,235.932 361.597 C 244.677 361.597,249.430 361.463,249.430 361.217 C 249.430 360.995,250.697 360.837,252.471 360.837 C 254.922 360.837,255.513 360.726,255.513 360.266 C 255.513 359.818,256.041 359.696,257.985 359.696 C 259.928 359.696,260.456 359.574,260.456 359.125 C 260.456 358.714,260.879 358.555,261.977 358.555 C 262.814 358.555,263.498 358.384,263.498 358.175 C 263.498 357.966,264.183 357.795,265.019 357.795 C 266.117 357.795,266.540 357.636,266.540 357.224 C 266.540 356.812,266.962 356.654,268.061 356.654 C 268.897 356.654,269.582 356.483,269.582 356.274 C 269.582 356.065,270.186 355.894,270.924 355.894 C 271.767 355.894,272.349 355.681,272.486 355.323 C 272.606 355.010,273.114 354.753,273.615 354.753 C 274.170 354.753,274.525 354.531,274.525 354.183 C 274.525 353.828,274.884 353.612,275.475 353.612 C 275.998 353.612,276.426 353.441,276.426 353.232 C 276.426 353.023,276.854 352.852,277.376 352.852 C 277.968 352.852,278.327 352.636,278.327 352.281 C 278.327 351.901,278.707 351.711,279.468 351.711 C 280.228 351.711,280.608 351.521,280.608 351.141 C 280.608 350.786,280.967 350.570,281.559 350.570 C 282.082 350.570,282.510 350.399,282.510 350.190 C 282.510 349.981,282.857 349.810,283.282 349.810 C 283.707 349.810,284.153 349.553,284.273 349.240 C 284.394 348.926,284.730 348.669,285.022 348.669 C 285.313 348.669,285.551 348.413,285.551 348.099 C 285.551 347.744,285.910 347.529,286.502 347.529 C 287.025 347.529,287.452 347.357,287.452 347.148 C 287.452 346.939,287.709 346.768,288.023 346.768 C 288.337 346.768,288.593 346.511,288.593 346.198 C 288.593 345.869,288.937 345.627,289.405 345.627 C 289.852 345.627,290.613 345.200,291.098 344.677 C 291.582 344.154,292.249 343.726,292.579 343.726 C 292.910 343.726,293.278 343.470,293.399 343.156 C 293.519 342.842,293.783 342.586,293.984 342.586 C 294.478 342.586,295.437 341.599,295.437 341.092 C 295.437 340.868,295.865 340.684,296.388 340.684 C 296.979 340.684,297.338 340.469,297.338 340.114 C 297.338 339.800,297.595 339.544,297.909 339.544 C 298.222 339.544,298.479 339.373,298.479 339.163 C 298.479 338.954,298.907 338.783,299.430 338.783 C 300.021 338.783,300.380 338.568,300.380 338.213 C 300.380 337.899,300.637 337.643,300.951 337.643 C 301.264 337.643,301.521 337.490,301.521 337.304 C 301.521 337.117,301.949 336.857,302.471 336.726 C 302.994 336.595,303.422 336.320,303.422 336.114 C 303.422 335.909,303.679 335.741,303.992 335.741 C 304.306 335.741,304.563 335.558,304.563 335.334 C 304.563 334.691,305.581 333.840,306.352 333.840 C 307.070 333.840,308.365 332.614,308.365 331.935 C 308.365 331.728,308.793 331.559,309.316 331.559 C 309.838 331.559,310.266 331.388,310.266 331.179 C 310.266 330.970,310.523 330.798,310.837 330.798 C 311.150 330.798,311.407 330.542,311.407 330.228 C 311.407 329.907,311.747 329.658,312.185 329.658 C 312.614 329.658,313.360 329.230,313.845 328.707 C 314.330 328.184,314.920 327.757,315.158 327.757 C 315.395 327.757,315.589 327.500,315.589 327.186 C 315.589 326.866,315.929 326.616,316.366 326.616 C 317.280 326.616,318.809 325.310,318.493 324.799 C 318.370 324.600,318.685 324.523,319.208 324.623 C 319.837 324.743,320.220 324.601,320.378 324.188 C 320.508 323.850,320.852 323.574,321.143 323.574 C 321.435 323.574,321.673 323.403,321.673 323.194 C 321.673 322.985,321.977 322.814,322.349 322.814 C 323.045 322.814,324.335 321.576,324.335 320.908 C 324.335 320.701,324.591 320.532,324.905 320.532 C 325.219 320.532,325.475 320.361,325.475 320.152 C 325.475 319.943,325.903 319.772,326.426 319.772 C 327.017 319.772,327.376 319.556,327.376 319.202 C 327.376 318.888,327.633 318.631,327.947 318.631 C 328.260 318.631,328.517 318.479,328.517 318.292 C 328.517 318.106,328.945 317.846,329.468 317.715 C 329.990 317.583,330.418 317.308,330.418 317.103 C 330.418 316.898,330.675 316.730,330.989 316.730 C 331.302 316.730,331.559 316.473,331.559 316.160 C 331.559 315.836,331.900 315.589,332.349 315.589 C 333.169 315.589,335.361 313.674,335.361 312.957 C 335.361 312.732,335.746 312.542,336.217 312.535 C 337.197 312.522,338.403 311.719,338.403 311.080 C 338.403 310.841,338.753 310.646,339.182 310.646 C 339.610 310.646,340.357 310.219,340.841 309.696 C 341.326 309.173,341.916 308.745,342.154 308.745 C 342.391 308.745,342.586 308.489,342.586 308.175 C 342.586 307.846,342.929 307.605,343.397 307.605 C 343.844 307.605,344.606 307.177,345.090 306.654 C 345.575 306.131,346.241 305.703,346.572 305.703 C 346.902 305.703,347.271 305.447,347.391 305.133 C 347.511 304.819,347.848 304.563,348.140 304.563 C 348.431 304.563,348.669 304.392,348.669 304.183 C 348.669 303.973,348.973 303.802,349.345 303.802 C 350.041 303.802,351.331 302.564,351.331 301.897 C 351.331 301.690,351.587 301.521,351.901 301.521 C 352.215 301.521,352.471 301.350,352.471 301.141 C 352.471 300.932,352.899 300.760,353.422 300.760 C 354.014 300.760,354.373 300.545,354.373 300.190 C 354.373 299.876,354.629 299.620,354.943 299.620 C 355.257 299.620,355.513 299.467,355.513 299.281 C 355.513 299.094,355.941 298.834,356.464 298.703 C 356.987 298.572,357.414 298.297,357.414 298.092 C 357.414 297.886,357.671 297.719,357.985 297.719 C 358.298 297.719,358.555 297.462,358.555 297.148 C 358.555 296.824,358.896 296.578,359.345 296.578 C 360.165 296.578,362.357 294.662,362.357 293.946 C 362.357 293.720,362.797 293.536,363.335 293.536 C 364.338 293.536,365.399 292.768,365.399 292.042 C 365.399 291.818,365.750 291.635,366.178 291.635 C 366.606 291.635,367.353 291.207,367.837 290.684 C 368.322 290.162,369.084 289.734,369.530 289.734 C 369.999 289.734,370.342 289.492,370.342 289.163 C 370.342 288.850,370.536 288.593,370.774 288.593 C 371.011 288.593,371.602 288.165,372.087 287.643 C 372.571 287.120,373.318 286.692,373.746 286.692 C 374.185 286.692,374.525 286.443,374.525 286.122 C 374.525 285.808,374.708 285.551,374.932 285.551 C 375.459 285.551,376.426 284.584,376.426 284.058 C 376.426 283.834,376.683 283.650,376.996 283.650 C 377.310 283.650,377.567 283.467,377.567 283.243 C 377.567 282.716,378.534 281.749,379.060 281.749 C 379.284 281.749,379.468 281.492,379.468 281.179 C 379.468 280.865,379.724 280.608,380.038 280.608 C 380.393 280.608,380.608 280.249,380.608 279.658 C 380.608 279.135,380.779 278.707,380.989 278.707 C 381.198 278.707,381.369 278.023,381.369 277.186 C 381.369 276.088,381.527 275.665,381.939 275.665 C 382.417 275.665,382.510 274.863,382.510 270.722 C 382.510 266.582,382.417 265.779,381.939 265.779 C 381.527 265.779,381.369 265.357,381.369 264.259 C 381.369 263.422,381.198 262.738,380.989 262.738 C 380.779 262.738,380.608 262.310,380.608 261.787 C 380.608 261.196,380.393 260.837,380.038 260.837 C 379.724 260.837,379.468 260.580,379.468 260.266 C 379.468 259.952,379.211 259.696,378.897 259.696 C 378.542 259.696,378.327 259.337,378.327 258.745 C 378.327 257.985,378.137 257.795,377.376 257.795 C 376.854 257.795,376.426 257.610,376.426 257.385 C 376.426 256.686,374.243 254.753,373.454 254.753 C 373.042 254.753,372.606 254.496,372.486 254.183 C 372.350 253.828,371.771 253.612,370.956 253.612 C 370.235 253.612,369.575 253.400,369.488 253.142 C 369.225 252.351,360.755 252.227,359.979 253.003 C 359.644 253.338,358.759 253.612,358.012 253.612 C 357.058 253.612,356.654 253.782,356.654 254.183 C 356.654 254.563,356.274 254.753,355.513 254.753 C 354.764 254.753,354.373 254.944,354.373 255.311 C 354.373 255.633,354.148 255.783,353.842 255.666 C 353.550 255.554,352.774 255.987,352.117 256.628 C 351.461 257.270,350.661 257.795,350.340 257.795 C 349.668 257.795,348.669 258.688,348.669 259.288 C 348.669 259.512,348.156 259.696,347.529 259.696 C 346.768 259.696,346.388 259.886,346.388 260.266 C 346.388 260.621,346.029 260.837,345.437 260.837 C 344.914 260.837,344.487 261.008,344.487 261.217 C 344.487 261.426,344.212 261.597,343.876 261.597 C 343.489 261.597,343.345 261.806,343.484 262.167 C 343.648 262.595,343.421 262.738,342.574 262.738 C 341.907 262.738,341.445 262.938,341.445 263.227 C 341.445 263.496,341.062 263.745,340.595 263.781 C 340.128 263.816,339.686 264.023,339.613 264.242 C 339.540 264.460,339.238 264.639,338.942 264.639 C 338.645 264.639,338.403 264.895,338.403 265.209 C 338.403 265.564,338.044 265.779,337.452 265.779 C 336.930 265.779,336.502 265.951,336.502 266.160 C 336.502 266.369,336.154 266.540,335.730 266.540 C 335.305 266.540,334.859 266.797,334.738 267.110 C 334.618 267.424,334.281 267.681,333.990 267.681 C 333.698 267.681,333.460 267.937,333.460 268.251 C 333.460 268.606,333.101 268.821,332.510 268.821 C 331.987 268.821,331.559 268.992,331.559 269.202 C 331.559 269.411,331.131 269.582,330.608 269.582 C 330.017 269.582,329.658 269.797,329.658 270.152 C 329.658 270.466,329.401 270.722,329.087 270.722 C 328.774 270.722,328.517 270.875,328.517 271.061 C 328.517 271.248,328.089 271.508,327.567 271.639 C 327.044 271.770,326.616 272.045,326.616 272.251 C 326.616 272.456,326.188 272.624,325.665 272.624 C 325.074 272.624,324.715 272.839,324.715 273.194 C 324.715 273.508,324.476 273.764,324.185 273.764 C 323.894 273.764,323.562 274.008,323.448 274.305 C 323.321 274.636,322.936 274.766,322.457 274.641 C 321.904 274.496,321.673 274.617,321.673 275.051 C 321.673 275.443,321.349 275.665,320.776 275.665 C 320.262 275.665,319.573 276.072,319.165 276.616 C 318.766 277.146,318.065 277.567,317.578 277.567 C 317.099 277.567,316.608 277.823,316.487 278.137 C 316.367 278.451,315.859 278.707,315.359 278.707 C 314.858 278.707,314.449 278.891,314.449 279.115 C 314.449 279.789,313.415 280.608,312.563 280.608 C 312.123 280.608,311.665 280.865,311.544 281.179 C 311.424 281.492,311.004 281.749,310.610 281.749 C 309.764 281.749,308.320 282.889,308.597 283.338 C 308.703 283.510,308.267 283.650,307.627 283.650 C 306.847 283.650,306.464 283.838,306.464 284.221 C 306.464 284.575,306.105 284.791,305.513 284.791 C 304.990 284.791,304.563 284.962,304.563 285.171 C 304.563 285.380,304.306 285.551,303.992 285.551 C 303.679 285.551,303.422 285.808,303.422 286.122 C 303.422 286.477,303.063 286.692,302.471 286.692 C 301.880 286.692,301.521 286.907,301.521 287.262 C 301.521 287.617,301.162 287.833,300.570 287.833 C 300.048 287.833,299.620 288.004,299.620 288.213 C 299.620 288.422,299.363 288.593,299.049 288.593 C 298.736 288.593,298.479 288.850,298.479 289.163 C 298.479 289.518,298.120 289.734,297.529 289.734 C 297.006 289.734,296.578 289.902,296.578 290.107 C 296.578 290.312,296.150 290.587,295.627 290.718 C 295.105 290.850,294.677 291.110,294.677 291.296 C 294.677 291.482,294.420 291.635,294.106 291.635 C 293.793 291.635,293.536 291.892,293.536 292.205 C 293.536 292.560,293.177 292.776,292.586 292.776 C 291.976 292.776,291.635 292.989,291.635 293.372 C 291.635 293.762,291.405 293.899,290.970 293.768 C 290.264 293.556,288.593 294.706,288.593 295.403 C 288.593 295.631,288.165 295.817,287.643 295.817 C 287.120 295.817,286.692 295.989,286.692 296.198 C 286.692 296.407,286.302 296.578,285.826 296.578 C 284.977 296.578,283.650 297.740,283.650 298.483 C 283.650 298.690,283.137 298.859,282.510 298.859 C 281.882 298.859,281.369 299.030,281.369 299.240 C 281.369 299.449,281.061 299.620,280.686 299.620 C 280.310 299.620,279.583 300.110,279.070 300.710 C 278.557 301.310,277.945 301.728,277.711 301.639 C 277.476 301.550,277.018 301.744,276.692 302.069 C 276.366 302.395,275.746 302.662,275.312 302.662 C 274.866 302.662,274.525 302.909,274.525 303.232 C 274.525 303.546,274.268 303.802,273.954 303.802 C 273.641 303.802,273.384 303.973,273.384 304.183 C 273.384 304.392,272.956 304.563,272.433 304.563 C 271.842 304.563,271.483 304.778,271.483 305.133 C 271.483 305.488,271.124 305.703,270.532 305.703 C 269.941 305.703,269.582 305.919,269.582 306.274 C 269.582 306.686,269.159 306.844,268.061 306.844 C 267.224 306.844,266.540 307.015,266.540 307.224 C 266.540 307.433,265.936 307.605,265.197 307.605 C 264.354 307.605,263.773 307.817,263.636 308.175 C 263.482 308.574,262.859 308.745,261.556 308.745 C 260.533 308.745,259.696 308.909,259.696 309.109 C 259.696 309.333,253.752 309.516,244.233 309.585 C 232.281 309.671,228.734 309.804,228.612 310.171 C 228.422 310.743,192.395 310.879,192.395 310.307 C 192.395 310.121,191.968 309.861,191.445 309.730 C 190.841 309.578,190.494 309.223,190.494 308.757 C 190.494 308.353,190.223 307.871,189.891 307.685 C 189.091 307.237,191.519 304.563,192.726 304.563 C 193.171 304.563,193.536 304.392,193.536 304.183 C 193.536 303.933,202.919 303.802,220.924 303.802 C 244.919 303.802,248.340 303.732,248.532 303.232 C 248.712 302.763,249.688 302.662,254.033 302.662 C 258.475 302.662,259.316 302.571,259.316 302.091 C 259.316 301.711,259.696 301.521,260.456 301.521 C 261.084 301.521,261.597 301.350,261.597 301.141 C 261.597 300.932,261.945 300.760,262.369 300.760 C 262.794 300.760,263.240 300.504,263.361 300.190 C 263.481 299.876,263.818 299.620,264.109 299.620 C 264.400 299.620,264.639 299.467,264.639 299.279 C 264.639 299.092,265.064 298.536,265.583 298.044 C 266.102 297.551,266.530 296.867,266.533 296.524 C 266.537 296.180,266.797 295.800,267.110 295.680 C 267.424 295.560,267.681 295.028,267.681 294.499 C 267.681 293.969,267.852 293.536,268.061 293.536 C 268.270 293.536,268.441 292.699,268.441 291.676 C 268.441 290.373,268.612 289.750,269.011 289.596 C 269.403 289.446,269.582 288.834,269.582 287.643 C 269.582 286.451,269.403 285.839,269.011 285.689 C 268.622 285.540,268.441 284.931,268.441 283.772 C 268.441 282.793,268.207 281.841,267.887 281.521 C 267.582 281.216,267.429 280.715,267.547 280.407 C 267.681 280.058,267.533 279.848,267.151 279.848 C 266.785 279.848,266.540 279.530,266.540 279.056 C 266.540 278.112,262.935 274.358,262.366 274.709 C 262.149 274.843,261.869 274.686,261.744 274.359 C 261.610 274.009,261.062 273.764,260.416 273.764 C 259.691 273.764,259.316 273.569,259.316 273.194 C 259.316 272.738,258.749 272.624,256.496 272.624 C 254.577 272.624,253.625 272.472,253.518 272.148 C 253.401 271.797,251.553 271.642,246.452 271.554 C 242.495 271.486,239.544 271.283,239.544 271.079 C 239.544 270.871,236.861 270.722,233.121 270.722 C 227.762 270.722,226.661 270.628,226.478 270.152 C 226.297 269.679,225.253 269.582,220.354 269.582 C 216.671 269.582,214.449 269.439,214.449 269.202 C 214.449 268.972,212.864 268.821,210.456 268.821 C 207.161 268.821,206.464 268.722,206.464 268.251 C 206.464 267.792,205.872 267.681,203.422 267.681 C 200.972 267.681,200.380 267.570,200.380 267.110 C 200.380 266.662,199.852 266.540,197.909 266.540 C 196.515 266.540,195.437 266.374,195.437 266.160 C 195.437 265.951,194.576 265.779,193.524 265.779 C 192.174 265.779,191.547 265.612,191.392 265.209 C 191.229 264.784,190.553 264.639,188.743 264.639 C 186.761 264.639,186.312 264.526,186.312 264.026 C 186.312 263.531,186.055 263.462,184.976 263.664 C 183.958 263.855,183.587 263.775,183.414 263.326 C 183.253 262.906,182.657 262.738,181.328 262.738 C 179.928 262.738,179.468 262.597,179.468 262.167 C 179.468 261.755,179.045 261.597,177.947 261.597 C 177.110 261.597,176.426 261.426,176.426 261.217 C 176.426 261.008,175.741 260.837,174.905 260.837 C 173.807 260.837,173.384 260.678,173.384 260.266 C 173.384 259.854,172.962 259.696,171.863 259.696 C 170.765 259.696,170.342 259.537,170.342 259.125 C 170.342 258.727,169.941 258.555,169.011 258.555 C 168.279 258.555,167.681 258.384,167.681 258.175 C 167.681 257.966,167.015 257.795,166.200 257.795 C 165.235 257.795,164.644 257.596,164.501 257.224 C 164.366 256.871,163.787 256.654,162.980 256.654 C 162.194 256.654,161.595 256.436,161.467 256.103 C 161.316 255.709,160.753 255.582,159.488 255.656 C 158.292 255.727,157.657 255.597,157.526 255.257 C 157.402 254.933,156.666 254.753,155.473 254.753 C 154.072 254.753,153.612 254.612,153.612 254.183 C 153.612 253.751,153.144 253.612,151.684 253.612 C 150.477 253.612,149.542 253.399,149.185 253.042 C 148.818 252.675,147.879 252.471,146.551 252.471 C 145.416 252.471,144.487 252.300,144.487 252.091 C 144.487 251.869,143.219 251.711,141.445 251.711 C 138.995 251.711,138.403 251.600,138.403 251.141 C 138.403 250.654,137.368 250.570,131.369 250.570 C 126.933 250.570,124.335 250.430,124.335 250.190 C 124.335 249.970,123.131 249.810,121.483 249.810 C 119.835 249.810,118.631 249.970,118.631 250.190 C 118.631 250.429,116.223 250.570,112.167 250.570 C 106.675 250.570,105.703 250.656,105.703 251.141 C 105.703 251.600,105.112 251.711,102.662 251.711 C 100.887 251.711,99.620 251.869,99.620 252.091 C 99.620 252.300,98.862 252.471,97.936 252.471 C 96.946 252.471,96.017 252.707,95.682 253.042 C 95.341 253.382,94.411 253.612,93.373 253.612 C 92.082 253.612,91.635 253.759,91.635 254.183 C 91.635 254.619,91.153 254.753,89.575 254.753 C 88.352 254.753,87.456 254.932,87.369 255.194 C 87.121 255.937,83.650 255.863,83.650 255.114 C 83.650 254.277,82.520 253.024,81.464 252.690 C 80.993 252.542,80.608 252.261,80.608 252.066 C 80.608 251.871,80.352 251.711,80.038 251.711 C 79.724 251.711,79.468 251.454,79.468 251.141 C 79.468 250.786,79.109 250.570,78.517 250.570 C 77.994 250.570,77.567 250.399,77.567 250.190 C 77.567 249.981,76.882 249.810,76.046 249.810 C 74.947 249.810,74.525 249.651,74.525 249.240 C 74.525 248.748,73.215 248.669,65.019 248.669 C 56.823 248.669,55.513 248.748,55.513 249.240 M57.414 323.194 C 57.414 323.403,57.928 323.574,58.555 323.574 C 59.183 323.574,59.696 323.758,59.696 323.984 C 59.696 324.509,61.793 326.616,62.316 326.616 C 62.535 326.616,62.615 326.873,62.495 327.186 C 62.356 327.547,62.500 327.757,62.887 327.757 C 63.346 327.757,63.498 328.134,63.498 329.278 C 63.498 330.376,63.657 330.798,64.068 330.798 C 64.480 330.798,64.639 331.221,64.639 332.319 C 64.639 333.418,64.480 333.840,64.068 333.840 C 63.745 333.840,63.498 334.181,63.498 334.628 C 63.498 335.061,63.232 335.682,62.906 336.008 C 62.580 336.333,62.404 336.835,62.514 337.121 C 62.627 337.417,62.472 337.643,62.155 337.643 C 61.848 337.643,61.597 337.899,61.597 338.213 C 61.597 338.527,61.414 338.783,61.190 338.783 C 60.663 338.783,59.696 339.751,59.696 340.277 C 59.696 340.501,59.011 340.684,58.175 340.684 C 57.076 340.684,56.654 340.843,56.654 341.255 C 56.654 341.693,56.168 341.825,54.563 341.825 C 52.957 341.825,52.471 341.693,52.471 341.255 C 52.471 340.843,52.049 340.684,50.951 340.684 C 50.114 340.684,49.430 340.501,49.430 340.277 C 49.430 339.751,48.462 338.783,47.936 338.783 C 47.712 338.783,47.529 338.527,47.529 338.213 C 47.529 337.899,47.272 337.643,46.958 337.643 C 46.603 337.643,46.388 337.283,46.388 336.692 C 46.388 336.169,46.217 335.741,46.008 335.741 C 45.781 335.741,45.627 334.284,45.627 332.129 C 45.627 329.975,45.781 328.517,46.008 328.517 C 46.217 328.517,46.388 328.089,46.388 327.567 C 46.388 327.044,46.572 326.616,46.797 326.616 C 47.329 326.616,49.430 324.516,49.430 323.984 C 49.430 323.758,49.857 323.574,50.380 323.574 C 50.903 323.574,51.331 323.403,51.331 323.194 C 51.331 322.972,52.598 322.814,54.373 322.814 C 56.147 322.814,57.414 322.972,57.414 323.194 " stroke="none" fill="#0c247c" fill-rule="evenodd"></path><path id="path1" d="M116.438 180.228 C 116.438 180.960,116.516 181.260,116.612 180.894 C 116.708 180.528,116.708 179.929,116.612 179.563 C 116.516 179.197,116.438 179.496,116.438 180.228 " stroke="none" fill="#0c2c7c" fill-rule="evenodd"></path><path id="path2" d="" stroke="none" fill="#10247c" fill-rule="evenodd"></path><path id="path3" d="" stroke="none" fill="#10247c" fill-rule="evenodd"></path><path id="path4" d="" stroke="none" fill="#10247c" fill-rule="evenodd"></path></g></svg>